<?xml version="1.0" standalone="no"?>
<!DOCTYPE svg PUBLIC "-//W3C//DTD SVG 20010904//EN"
 "http://www.w3.org/TR/2001/REC-SVG-20010904/DTD/svg10.dtd">
<svg version="1.0" xmlns="http://www.w3.org/2000/svg"
 width="512.000000pt" height="512.000000pt" viewBox="0 0 512.000000 512.000000"
 preserveAspectRatio="xMidYMid meet">
<metadata>
Created by potrace 1.11, written by Peter Selinger 2001-2013
</metadata>
<g transform="translate(0.000000,512.000000) scale(0.100000,-0.100000)"
fill="#000000" stroke="none">
<path d="M273 5098 c-116 -39 -220 -147 -258 -268 -11 -38 -13 -392 -12 -2285
l2 -2240 31 -65 c46 -95 101 -153 192 -197 l76 -38 2255 0 2256 0 66 31 c112
53 175 124 220 246 19 52 19 102 16 2293 l-2 2240 -32 67 c-44 93 -100 151
-191 196 l-76 37 -2240 2 -2241 2 -62 -21z"/>
</g>
</svg>
