<svg enable-background="new 0 0 64 64" height="512" viewBox="0 0 64 64" width="512" xmlns="http://www.w3.org/2000/svg"><path d="m29.586 9 3.777 3.777c.164-.742.379-1.469.653-2.175l-3.602-3.602h-5.494c.047.328.08.66.08 1s-.033.672-.08 1z"/><path d="m27 37h-.816c.414 1.161 1.514 2 2.816 2h7v-12h-7c-1.302 0-2.402.839-2.816 2h.816c1.654 0 3 1.346 3 3v2c0 1.654-1.346 3-3 3z"/><path d="m29 25h3.953c-3.214-3.786-7.926-6-12.953-6-6.877 0-12.8 4.112-15.474 10h19.575c.465-2.279 2.485-4 4.899-4zm-15 2h-2v-2h2zm4 0h-2v-2h2zm4 0h-2v-2h2z"/><path d="m28 34v-2c0-.551-.449-1-1-1h-23.247c-.393 1.275-.621 2.618-.702 4h23.949c.551 0 1-.448 1-1z"/><path d="m52 16c0 .551.449 1 1 1h1c1.654 0 3 1.346 3 3s-1.346 3-3 3h-5c-.551 0-1 .449-1 1s.449 1 1 1h8.359c2.249-2.338 3.641-5.507 3.641-9 0-.338-.025-.669-.051-1h-7.949c-.551 0-1 .449-1 1z"/><path d="m45 17c.551 0 1-.449 1-1s-.449-1-1-1h-2c-1.654 0-3-1.346-3-3s1.346-3 3-3h2c.551 0 1-.449 1-1s-.449-1-1-1h-6.359c-2.249 2.338-3.641 5.507-3.641 9 0 .335.018.668.044 1z"/><path d="m41 23c1.654 0 3 1.346 3 3v2.344c1.307.427 2.648.656 4 .656 2.535 0 4.895-.74 6.897-2h-5.897c-1.654 0-3-1.346-3-3s1.346-3 3-3h5c.551 0 1-.449 1-1s-.449-1-1-1h-1c-1.654 0-3-1.346-3-3s1.346-3 3-3h7.637c-1.36-5.724-6.503-10-12.637-10-2.535 0-4.895.74-6.897 2h3.897c1.654 0 3 1.346 3 3s-1.346 3-3 3h-2c-.551 0-1 .449-1 1s.449 1 1 1h2c1.654 0 3 1.346 3 3s-1.346 3-3 3h-9.636c.382 1.603 1.058 3.128 2.014 4.484.468-.303 1.024-.484 1.622-.484z"/><path d="m41 41c.551 0 1-.448 1-1v-14c0-.551-.449-1-1-1h-2c-.551 0-1 .449-1 1v14c0 .552.449 1 1 1z"/><path d="m29 41c-2.414 0-4.434-1.721-4.899-4h-21.101v3c0 5.682 2.825 10.966 7.557 14.134l.443.297v7.569h14v-3h-1c-4.962 0-9-4.037-9-9v-1h2v1c0 3.859 3.14 7 7 7h9.087l.977-10.742 2.936-.979v-3.06c-.366-.33-.647-.746-.816-1.22h-7.184zm-15 0h-2v-2h2zm4 0h-2v-2h2zm4 0h-2v-2h2z"/><circle cx="18" cy="8" r="1"/><path d="m18 13c2.757 0 5-2.243 5-5s-2.243-5-5-5-5 2.243-5 5 2.243 5 5 5zm0-8c1.654 0 3 1.346 3 3s-1.346 3-3 3-3-1.346-3-3 1.346-3 3-3z"/><path d="m63 49c0-1.694-1.673-3.13-4.712-4.044l-.576 1.916c2.259.679 3.288 1.579 3.288 2.128 0 1.194-3.988 3-10 3-1.014 0-1.965-.055-2.854-.146-.091-.889-.146-1.84-.146-2.854 0-6.012 1.806-10 3-10 .549 0 1.45 1.028 2.127 3.287l1.916-.574c-.912-3.039-2.348-4.713-4.043-4.713-3.283 0-5 6.037-5 12 0 .859.04 1.717.111 2.561-3.187-.61-5.111-1.732-5.111-2.561 0-.549 1.029-1.449 3.288-2.128l-.576-1.916c-3.039.914-4.712 2.35-4.712 4.044 0 2.413 3.265 3.977 7.362 4.638.661 4.096 2.225 7.362 4.638 7.362 1.695 0 3.131-1.674 4.043-4.713l-1.916-.574c-.677 2.259-1.578 3.287-2.127 3.287-.829 0-1.951-1.924-2.561-5.111.844.071 1.702.111 2.561.111 5.963 0 12-1.718 12-5z"/><path d="m50 48h2v2h-2z"/></svg>